<svg xmlns="http://www.w3.org/2000/svg" width="1200" height="630" viewBox="0 0 1200 630">
  <rect width="1200" height="630" fill="#4A5916"/>
  <rect x="600" y="0" width="600" height="630" fill="#3a4711"/>

  <!-- Decorative hex icon -->
  <g transform="translate(160, 315)">
    <polygon points="0,-90 78,-45 78,45 0,90 -78,45 -78,-45" stroke="#8BA07A" stroke-width="3" fill="none" opacity="0.6"/>
    <circle cx="0" cy="0" r="32" fill="none" stroke="white" stroke-width="2.5" opacity="0.5"/>
    <circle cx="0" cy="0" r="20" fill="none" stroke="#8BA07A" stroke-width="2"/>
    <circle cx="0" cy="-90" r="6" fill="#8BA07A"/>
    <circle cx="78" cy="-45" r="6" fill="#8BA07A"/>
    <circle cx="78" cy="45" r="6" fill="#8BA07A"/>
    <circle cx="0" cy="90" r="6" fill="#8BA07A"/>
    <circle cx="-78" cy="45" r="6" fill="#8BA07A"/>
    <circle cx="-78" cy="-45" r="6" fill="#8BA07A"/>
  </g>

  <!-- Left text block -->
  <text x="290" y="270" font-family="Georgia, serif" font-size="22" font-weight="400" fill="#8BA07A" letter-spacing="8">PRO HOME</text>
  <text x="285" y="340" font-family="Georgia, serif" font-size="72" font-weight="700" fill="white" letter-spacing="4">MEDIA</text>
  <line x1="285" y1="358" x2="560" y2="358" stroke="rgba(255,255,255,0.3)" stroke-width="1.5"/>
  <text x="285" y="384" font-family="Georgia, serif" font-size="14" fill="rgba(255,255,255,0.65)" letter-spacing="6">PHOTOGRAPHY · VIDEO</text>

  <!-- Right text block -->
  <text x="660" y="220" font-family="Georgia, serif" font-size="38" font-weight="300" fill="white" opacity="0.95">Real Estate</text>
  <text x="660" y="278" font-family="Georgia, serif" font-size="38" font-weight="700" fill="white">Photography &amp; Video</text>
  <line x1="660" y1="305" x2="1100" y2="305" stroke="#8BA07A" stroke-width="2"/>
  <text x="660" y="345" font-family="Georgia, serif" font-size="20" fill="rgba(255,255,255,0.8)">South Florida · 24h Delivery · Starting at $199</text>

  <!-- Service tags -->
  <rect x="660" y="380" width="130" height="34" rx="4" fill="rgba(139,160,122,0.25)" stroke="#8BA07A" stroke-width="1"/>
  <text x="725" y="402" font-family="Georgia, serif" font-size="13" fill="white" text-anchor="middle">HDR Photos</text>

  <rect x="804" y="380" width="130" height="34" rx="4" fill="rgba(139,160,122,0.25)" stroke="#8BA07A" stroke-width="1"/>
  <text x="869" y="402" font-family="Georgia, serif" font-size="13" fill="white" text-anchor="middle">Drone Aerials</text>

  <rect x="948" y="380" width="130" height="34" rx="4" fill="rgba(139,160,122,0.25)" stroke="#8BA07A" stroke-width="1"/>
  <text x="1013" y="402" font-family="Georgia, serif" font-size="13" fill="white" text-anchor="middle">Cinematic Video</text>

  <rect x="660" y="426" width="130" height="34" rx="4" fill="rgba(139,160,122,0.25)" stroke="#8BA07A" stroke-width="1"/>
  <text x="725" y="448" font-family="Georgia, serif" font-size="13" fill="white" text-anchor="middle">Floor Plans</text>

  <rect x="804" y="426" width="130" height="34" rx="4" fill="rgba(139,160,122,0.25)" stroke="#8BA07A" stroke-width="1"/>
  <text x="869" y="448" font-family="Georgia, serif" font-size="13" fill="white" text-anchor="middle">Virtual Staging</text>

  <!-- Domain -->
  <text x="660" y="530" font-family="Georgia, serif" font-size="18" fill="#8BA07A" letter-spacing="2">prohomemedia.com</text>
</svg>
